<svg xmlns="http://www.w3.org/2000/svg" width="191.275" height="191.275"><path d="M134.9 190.774l-78.772-.101L.5 134.9l.102-78.772L56.374.5l78.772.102 55.628 55.772-.101 78.772z" fill="#cebeab"/><path class="svgfill" d="M95.898 12.517c-.537-.047-1.164.408-1.397 1.413-.272 1.17-.163 11.166-.167 13.84-5.066-.248-15.268.474-16.338-1.797-2.424-2.424-.92-12.056-3.251-11.969-3.158.118-1.522 8-1.522 8.994.045 1.647 1.333 3.636 2.56 4.98 4.203 4.018 12.599 2.022 18.47 2.629 1.201 6.815-2.121 2.072-6.018 4.76-1.142 2.939 5.434 1.368 5.88 1.812.07.903.217 2.14 0 3.113-.723.722-4.36-.276-5.604.969-2.231 2.23 5.703 1.551 5.742 1.59-.035.773.04 2.12-.207 3.045-.153.153-4.526 1.018-5.397 1.453-1.756.878.583 2.213 1.66 2.213 1.292-.225 2.383-.393 3.737-.69 0 13.746.645 27.896.275 41.714-11.06-8.443-21.869-19.93-33.689-31.337 1.341-1.175 1.738-1.727 3.045-1.87.693-.692 4.635 1.384 4.635-.9 0-.456-.58-.773-.97-.967-3.111-1.555-5.92.367-8.508 1.66-.384.191-1.949-1.324-2.353-1.936 3.904-4.69 7.772-6.848 10.032-11.416.323-1.037-1.062-2.285-1.522-2.974-2.714-3.136-6.866-6.235-10.515-9.546-1.73-1.517-2.617-2.648-4.012-2.698-1.79.596.465 2.394.898 3.043 2.037 1.979 4.861 4.083 7.955 6.848.91.838 3.484 3.623 4.429 4.567-2.53 3.4-6.095 6.255-9.132 10.1-.716-.552-1.956-1.356-2.215-2.283 1.247-1.248 2.075-2.08 2.836-3.875.127-.299-.424-1.106-.759-1.106-1.636 0-3.651 3.32-3.943 3.32-.736 0-2.74-2.02-3.044-2.629 1.093-3.486 1.572-7.04-3.322-9.891-3.418-1.176-6.716-1.888-8.232.69-6.324 10.116 2.94 16.048 10.1 11.139.762.762 1.76 1.62 2.49 2.352.558.557-4.168 2.888-2.698 4.359 1.557 1.556 3.633-1.92 4.775-2.491.652 1.008 1.662 1.734 2.49 2.698-2.763 2.797-7.01 7.323-10.93 8.232-5.374-4.34-9.16-7.828-14.527-12.244-2.023-1.012-1.915.873-1.522 1.66C32.3 58.877 36.57 62.91 41.608 66.166c2.879 1.44 11.556-6.917 13.42-8.717.534.576 1.407.84 1.798 1.52-1.883 2.23-2.733 7.469-1.728 9.479.272.544.374.927.692 1.245.577.577 2.042-.285 2.144-.691.225-.898-.338-2.11-.484-2.698-.436-1.75.82-4.97 1.107-5.257 8.598 8.203 22.827 21.913 33.136 31.06-22.197.236-34.31-.587-57.834-.07-.208-3.052-.214-4.853-.414-8.162 0-3 .028-7.5-1.66-10.032-.98-1.44-2.323-2.575-3.944-3.181-7.117-1.233-9.369-1.082-11.622 0-.354.236-.345.501-.345.968 0 2.034 4.158 1.177 5.74 1.177 2.99 0 5.615 1.254 7.335 2.975.725.725.764 2.703 1.245 3.667.109.216.24 2.387.138 2.489-4.837-.344-8.997-.279-13.559-.07-1.072.267-1.795 1.094-1.106 2.283 2.82.708 11.08-.115 14.457.762.204 2.388-.031 4.684.14 7.264-.249.247-14.924.414-15.29.414-2.049.254-1.642.873-1.106 2.076.532 1.336 11.1.534 16.257.484.17 3.578.173 5.208.07 9.062-.264.263-10.718-.38-12.245 0-1.923.122-3.138.753-2.214 2.49.735.858 11.406 1.07 14.32.899-.121 2.324-.437 4.934-.762 7.61-.847.71-1.945.753-2.49.831-6.285.9-7.818-.716-9.34.968-.567.629-.17 1.955.486 2.283 1.289.644 11.61.083 12.452-.76.803-.81 1.894-1.304 2.352-2.975.88-3.973.811-8.387.967-12.453.028-.724-.029-8.16.07-8.163 19.508-.508 42.445-.18 58.147-.386-11.452 11.866-20.359 21.23-32.897 34.56-2.438-4.492-.562-6.41-1.357-8.452-1.04-2.08-2.859.78-2.96 2.021-.118 1.432-.25 4.266.695 6.596.226.561 1.3 2.38 1.3 2.38-.166.166-2.633 2.601-2.729 2.506-.74-.742-2.708-2.78-3.963-3.31 0 0-1.2-.564-1.921.294-1.047 1.67 3.392 5.02 3.81 5.437.211.21-2.214 2.214-2.214 2.214-7.714-5.877-10.924-7.668-12.343-8.023-4.544-.833-7.897 4.049-9.89 7.676-.784 1.57 1.288 2.056 2.102 1.662 2.188-1.062 2.453-5.57 6.489-6.309 1.444-.19 7.998 4.716 11.68 7.692-.86 1.145-1.924 2.548-2.258 2.213-.667-.668-2.999-2.88-4.427-1.453-1.239 1.413 1.164 3.671 2.52 4.246-.14.14-1.95 2.286-2.105 2.188 0 0-2.29-2.565-3.35-1.617-1.626.923.358 3.04 1.345 4.177.19.384-2.736 2.124-1.216 3.138 1.489.992 2.016-.841 2.875-1.27.916.88 2.888 3.73 4.773 2.283 1.841-1.841-2.907-4.082-2.63-4.637a48.62 48.62 0 012.146-2.488c.15-.076 3.473 3.796 4.84 1.73 1.469-2.22-1.601-3.265-2.625-4.29.337-.44 1.53-1.808 2.35-2.49 3.7 3.75 10.376 10.96 10.377 12.105 1.424 2.014-1.533 5.061-2.628 6.157-1.454 1.39-2.807 2.348-1.7 4.067.738.738 1.81-.49 2.46-.815.772-.385 1.47-1.447 2.075-2.077 2.825-2.936 3.495-5.076 3.226-7.48-.719-3.579-7.308-10.023-11.666-14.56.49-.627 1.442-1.857 2.161-2.298.707.707 6.981 7.241 7.983 4.234.481-1.848-4.1-4.374-5.992-6.458.54-.542 1.401-1.347 2.284-1.938 0-.64 2.662 1.391 3.457 1.59 2.008.502 10.654 3.76 10.654-.553 0-.901-.811-1.106-1.591-1.106-2.852-.012-6.998.032-10.308-2.741 10.612-12.74 21.821-22.624 33.068-35.583-.22 17.95.889 42.523.553 62.19-3.968 0-16.148-.798-19.08 2.133-1.571 1.62-2.152 3.952-2.157 6.445-.417.417-2.126.188-3.045 1.106-.208.21-.186.737-.069.97.982 1.964 2.686.68 2.767 1.522l.21 2.161c-1.415.465-3.24.567-2.365 2.573.59 1.35 7.734 1.474 8.934.108.555-1.204-.24-2.321-.952-2.558-.545-.182-2.85 0-2.85 0l-.086-2.607c1.679-.201 4.103.846 4.512-1.337-.585-2.818-3.473-1.33-4.22-2.077-.086-.086 0-.764 0-.9.445-4.01 1.81-3.997 4.496-4.426.314 1.744.204 3.356 2.49 3.46 2.757-1.38.213-2.841 1.04-3.667 0 0 8.98-.025 10.375.276l.138 4.15s-4.626.5-6.843 1.728c-1.646 1.312-1.783 2.58-1.72 5.713.012.616.55 1.747 1.369 1.83 2.767.282.66-3.973 2.01-5.324 1.085-.702 5.17-.89 5.17-.89l.223 7.06s-2.79-.393-2.6 1.656c.08 2.31 8.933 2.143 8.618-.15-.162-1.353-1.787-1.789-3.433-1.69 0 0-.148-6.974-.026-7.096.225-.224 1.86 0 2.213 0 6.846 0 2.29 5.674 5.188 6.64 3.145 1.05 1.81-6.146.693-7.262-2.249-2.359-8.164-2.283-8.164-2.283s.052-3.362.14-4.082c3.257-.417 8.194.096 11.496-.181.209.83-.136 3.681 2.2 3.64 1.556-.69 1.027-1.7 1.246-3.252 2.234-.293 5.162.426 5.05 3.806-.672.67-3.234-.251-3.597 1.728-.018 2.508 2.343 1.405 4.013 1.731.053.97.14 2.204.068 3.25-.503.504-3.091-.108-3.07 1.939.38 1.845 2.96.927 3.485 1.452.735.735 1.346 1.076 2.353.069.17-.17 3.957.281 4.108-1.458-.399-2.058-1.681-1.65-3.97-2.001 0-3.182.312-2.333 0-3.182 2.1.145 2.811-.269 2.936-1.596.004-1.832-3.282-2.14-3.282-2.14-.29-2.583-.647-3.968-4.604-6.128-4.96-1.512-11.346-.192-18.156-.927-.671-21.667-.757-42.626-.9-61.293 11.979 11.895 18.904 20.439 30.854 31.754-.737.736-2.227 1.641-2.254 2.78-.026 1.139.685 1.418.945 1.54 1.419.666 3.153-1.184 4.007-2.038.075-.075 1.19 1.182 1.315 1.244.014.007-.8.744-1.384 1.524-1.072 1.43-2.305 2.26-.831 3.734 1.183 1.182 3.066-1.06 3.667-1.66.114-.114 1.328-1.426 1.453-1.176.066.133 1.69 1.837 1.66 1.868-1.286 1.224-3.356 2.063-2.447 4.332 1.152 2.304 3.884-1.769 4.937-2.327.344.458 1.651 1.017 1.939 1.591-2.97 3.072-6.934 6.132-8.966 9.895-.958 1.932-1.647 4.639-.236 7.47 1.18 1.179 2.786 3.505 4.29 5.05.88.906 2.858 2.951 4.01 1.798.177-.176.623-.402.623-.829-.966-2.512-3.663-4.198-5.048-6.02-.39-.78-1.255-1.39-1.453-2.758-.122-4.9 5.4-9.111 9.146-12.034 3.767 2.618 10.943 10.81 12.397 8.265.57-1.89-2.993-3.652-9.575-9.936 2.756-2.833 5.264-7.351 8.538-10.049 1.955-1.83 4.59.199 5.988.985 2.24 1.747 3.958 2.92 4.36 3.323.587.586 1.383 1.589 2.212.759 1.386-1.386.196-2.46-2.143-4.772-2.4-1.397-4.646-4.124-8.025-3.944-4.458-1.192-8.996 7.03-13.421 11.414-.895-.81-1.584-1.413-2.56-2.143-.341-.342 3.748-3.296 2.767-5.258-1.312-2.624-5.101 3.269-5.396 2.975-.418-.567-.955-1.299-1.66-1.66.454-.453 3.379-3.162 2.392-4.399-.987-1.238-2.728-.452-3.771.592-.487.486-1.55 1.639-1.597 1.592-.076-.077-1.504-1.262-1.315-1.453 1.05-1.05 2.979-2.565 3.016-4.43.035-1.74-2.035-1.393-3.015-.413-.795.795-1.57 1.902-2.63 2.56-10.33-9.996-20.258-21.226-30.574-31.476 11.573-.606 25.72-.201 37.633-.692.298 4.111-1.101 5.535-3.194 8.303-.711 1.814 2.941 1.863 3.746.276 2.206-2.207 2.471-5.64 3.044-8.787.49 0 2.885-.367 3.114-.138.429.43-.934 5.656.483 6.365 3.436 1.718 2.324-5.239 2.837-6.503.78-.038 1.9.12 2.836 0 .256 2.761.802 8.04 3.321 8.924.485.17 2.025.055 1.799-1.176-1.125-2.042-2.052-4.907-1.799-7.747h6.572c.018 5.344.652 11.276 1.787 15.287 1.27 3.813 4.964 5.312 10.111 5.397 1.653.026 5.11 1.029 5.605-.554.266-.851-.806-1.867-1.315-1.867-1.806 0-8.41-.557-10.1-2.076-2.237-2.01-2.773-12.389-2.975-16.119 2.542 0 6.206-.172 10.447 0 1.252.114 2.91-.082 3.943-.97.664-1.412-2.41-1.768-3.517-1.768-1.487 0-8.493.07-10.735-.167.079-4.009-.308-11.531 1.799-14.528 3.24-2.16 7.288-.685 10.017-2.05 1.474-.737.867-2.234-.54-2.515-3.873-.24-9.86.668-11.662 2.698-2.92 2.92-1.837 12.41-2.934 16.395-.797 0-6.157-.138-6.157-.138.43-4.998 3.336-4.47 2.05-7.178-.454-.955-1.202-.907-1.536-.74-2.354 1.176-3.558 4.355-3.988 7.994l-3.098-.007c-.01-1.533-.279-2.456-.845-3.873-.357-.356-1.651-.274-1.77.08-.259.776-.514 1.706-.635 4-.976-.04-2.365.127-3.53.138-.4-.91-1.106-2.476-1.495-3.125-1.113-1.854-3.796-5.54-6.046-4.414-2.142 1.07.965 2.866 1.342 3.431.888 1.336 2.018 2.33 2.811 4.316-12.826.4-23.567.002-36.46.692 10.385-10.295 19.416-20.225 29.402-30.784 4.913 6.948 1.764 12.063 3.528 12.937 1.895.891 2.35-2.756 2.422-3.398.455-4.064-2.36-10.385-3.805-12.1.469-.117 2.517-3.155 2.836-2.835.905.905 9.16 4.021 10.1 2.145 1.233-2.467-1.9-2.621-3.32-2.976-1.902-.39-2.87-.575-4.912-1.936 1.562-1.546 3.247-3.139 4.635-4.982 3.82 3.971 9.443 9.275 13.421 12.037 4.928.756 7.104-2.304 10.168-5.602.625-.938 1.083-3.296-.207-3.113-1.994.28-4.702 4.84-7.916 5.41-2.458.435-11.383-8.856-13.322-10.945 2.52-2.52 5.529-6.679 7.904-9.756.808-1.047.308-1.982-.99-1.992-1.25.04-7.314 7.176-9.182 9.605-3.686-3.574-10.086-6.857-11.706-12.73.732-2.928 4.964-4.805 6.284-7.445.394-.787-.599-2.19-1.678-1.92-3.909 1.947-7.316 7.092-7.608 8.514-.482 1.445.695 3.683 1.383 4.83 2.361 3.631 7.372 7.831 11.028 11.033-1.338 1.803-3.101 3.732-4.635 5.534-3.322-2.138-4.566-6.18-4.566-7.749-.779-2.075-2.235-1.396-2.284.624 0 3.635 1.415 6.463 3.805 8.854.233.232.556.349.762.554.175.175-1.739 2.764-2.422 2.837-3.833-2.999-7.954-3.75-13.144-3.667-1.306.02-4.171.58-3.32 2.283 1.246 2.68 8.04-.937 13.767 3.735-6.546 8.18-21.216 22.73-29.332 31.822-.061-13.515-.946-27.152-.346-41.784-.362-1.447 5.429 1.043 6.296-.692 1.183-2.367-6.012-2.553-6.365-2.906 0-.824-.089-1.813.207-2.629.892-.891 4.706.898 5.397-.483 1.366-2.734-4.937-1.686-5.535-2.284-.032-.724-.087-1.885.07-2.766.23-.232 8.67 1.072 6.295-2.492-1.931-.9-3.67-.743-6.1-.76-.148-.9-.13-3.058-.196-3.736 3.215.358 9.66.702 13.835.415 2.048 0 4.632-1.305 5.606-3.25 1.157-1.209 2.124-12.436.483-13.836-2.142-.388-2.188 1.95-2.188 2.452 0 3.282.735 7.203-1.327 10.082-2.108 2.943-12.502 1.058-16.091 1.245-.397-3.42.254-12.688-.396-14.302-.154-.38-.444-.59-.767-.619zM39.982 38.428a5.633 5.633 0 011.966.416c1.423.6 3.542 2.287 3.633 3.8.042.693-.085 1.963-.335 1.963-2.33-2.342-5.071-4.329-7.056-5.93.503-.185 1.132-.272 1.792-.249zm-2.92 1.754c1.96 2.102 4.89 4.08 6.806 6.513-.434.72-1.299 1.303-2.422 1.586-2.771-.085-5.238-1.334-5.468-3.382-.24-2.224.338-3.59 1.084-4.717z" fill="#444"/><path d="M119.15 58.594c-.72-.12-1.086.835-1.295 1.379-.703 1.825 2.197 2.966 3.09 1.753.816-1.108-.356-3.21-1.796-3.132zm8.976 8.643c-2.434.059-1.696 3.764.794 3.382 1.807-.277.538-3.383-.794-3.382z" class="svgfill" fill="#444"/></svg>