<?xml version="1.0" encoding="UTF-8" standalone="no"?>
<svg
   xmlns:dc="http://purl.org/dc/elements/1.1/"
   xmlns:cc="http://creativecommons.org/ns#"
   xmlns:rdf="http://www.w3.org/1999/02/22-rdf-syntax-ns#"
   xmlns:svg="http://www.w3.org/2000/svg"
   xmlns="http://www.w3.org/2000/svg"
   xmlns:sodipodi="http://sodipodi.sourceforge.net/DTD/sodipodi-0.dtd"
   xmlns:inkscape="http://www.inkscape.org/namespaces/inkscape"
   height="416.026"
   style="clip-rule:evenodd;fill-rule:evenodd;stroke-linejoin:round;stroke-miterlimit:2"
   version="1.1"
   viewBox="0 0 512 416.026"
   width="512"
   xml:space="preserve"
   id="svg4"
   sodipodi:docname="twitter-dark.svg"
   inkscape:version="1.0.2-2 (e86c870879, 2021-01-15)"><metadata
     id="metadata10"><rdf:RDF><cc:Work
         rdf:about=""><dc:format>image/svg+xml</dc:format><dc:type
           rdf:resource="http://purl.org/dc/dcmitype/StillImage" /></cc:Work></rdf:RDF></metadata><defs
     id="defs8" /><sodipodi:namedview
     pagecolor="#ffffff"
     bordercolor="#666666"
     borderopacity="1"
     objecttolerance="10"
     gridtolerance="10"
     guidetolerance="10"
     inkscape:pageopacity="0"
     inkscape:pageshadow="2"
     inkscape:window-width="1920"
     inkscape:window-height="1057"
     id="namedview6"
     showgrid="false"
     inkscape:zoom="1.7382812"
     inkscape:cx="256"
     inkscape:cy="208.013"
     inkscape:window-x="-8"
     inkscape:window-y="214"
     inkscape:window-maximized="1"
     inkscape:current-layer="svg4" /><path
     d="m 161.014,416.026 c 193.208,0 298.885,-160.071 298.885,-298.885 0,-4.546 0,-9.072 -0.307,-13.578 C 480.15,88.692 497.897,70.281 512,49.189 492.829,57.684 472.49,63.254 451.666,65.716 473.59,52.592 490.009,31.934 497.848,7.614 477.229,19.849 454.668,28.473 431.145,33.112 411.283,11.991 383.543,0 354.552,0 296.87,0 249.407,47.464 249.407,105.144 c 0,8.002 0.914,15.979 2.722,23.773 C 167.711,124.686 88.949,84.756 35.635,19.165 7.911,66.891 22.256,128.741 68.157,159.391 51.442,158.896 35.086,154.386 20.48,146.243 v 1.331 c 0.014,49.814 35.447,93.111 84.275,102.974 -15.464,4.217 -31.693,4.833 -47.431,1.802 13.727,42.685 53.311,72.108 98.14,72.95 -37.19,29.227 -83.157,45.103 -130.458,45.056 C 16.648,370.34 8.298,369.834 0,368.84 c 48.034,30.825 103.94,47.18 161.014,47.104"
     style="fill-rule:nonzero"
     fill="#a4988a"
     id="path2" /></svg>
